<svg width="35" height="35" viewBox="0 0 35 35" fill="none" xmlns="http://www.w3.org/2000/svg">
<path d="M11.1212 16.7694C10.902 16.7694 10.6963 16.6841 10.541 16.5293L7.83398 13.8223C7.6806 13.6682 7.59448 13.4597 7.59448 13.2423C7.59448 13.0249 7.6806 12.8164 7.83398 12.6623L9.38109 11.1152C9.53513 10.9618 9.74367 10.8757 9.96105 10.8757C10.1784 10.8757 10.387 10.9618 10.541 11.1152L13.248 13.8223C13.4018 13.9761 13.4882 14.1847 13.4882 14.4022C13.4882 14.6197 13.4018 14.8284 13.248 14.9822L11.7015 16.5287C11.5462 16.6841 11.34 16.7694 11.1212 16.7694ZM9.96133 11.422C9.95312 11.422 9.94492 11.422 9.93672 11.4231C9.87254 11.4284 9.81239 11.4566 9.76719 11.5024L8.22062 13.049C8.16936 13.1003 8.14056 13.1698 8.14056 13.2423C8.14056 13.3148 8.16936 13.3843 8.22062 13.4356L10.9277 16.1427C10.9797 16.1924 11.049 16.2201 11.121 16.2201C11.193 16.2201 11.2622 16.1924 11.3143 16.1427L12.8609 14.5961C12.8864 14.5708 12.9066 14.5407 12.9204 14.5075C12.9343 14.4743 12.9414 14.4387 12.9414 14.4028C12.9414 14.3668 12.9343 14.3312 12.9204 14.2981C12.9066 14.2649 12.8864 14.2348 12.8609 14.2095L10.1538 11.5019C10.1286 11.4765 10.0986 11.4564 10.0656 11.4427C10.0325 11.429 9.9971 11.422 9.96133 11.422Z" fill="black"/>
<path d="M13.2136 14.7093C13.1932 14.7093 13.1729 14.7071 13.1529 14.7027L11.0409 14.2258C10.8005 14.1707 10.5806 14.0489 10.4062 13.8745C10.2318 13.7002 10.11 13.4802 10.0549 13.2398L9.61081 11.2733C9.60193 11.2379 9.60021 11.2012 9.60575 11.1651C9.61128 11.1291 9.62396 11.0946 9.64304 11.0635C9.66211 11.0325 9.6872 11.0056 9.71683 10.9843C9.74646 10.9631 9.78003 10.948 9.81557 10.94C9.85111 10.9319 9.8879 10.9311 9.92378 10.9374C9.95966 10.9438 9.9939 10.9573 10.0245 10.9771C10.0551 10.9968 10.0814 11.0226 10.102 11.0527C10.1225 11.0828 10.1368 11.1167 10.144 11.1524L10.5881 13.119C10.6521 13.4033 10.8774 13.6281 11.1612 13.6921L13.2732 14.169C13.339 14.1836 13.397 14.222 13.4361 14.2768C13.4753 14.3316 13.4929 14.3989 13.4855 14.4658C13.4781 14.5328 13.4463 14.5946 13.3961 14.6395C13.3459 14.6845 13.281 14.7093 13.2136 14.7093ZM26.256 31.1719H8.75604V21.6015C8.75604 20.8479 9.36964 20.2344 10.1232 20.2344H15.0599V20.7812H10.1232C9.67096 20.7812 9.30292 21.1493 9.30292 21.6015V30.625H25.7092V21.6015C25.7092 21.1493 25.3411 20.7812 24.8889 20.7812H19.9517V20.2344H24.8889C25.6425 20.2344 26.256 20.8479 26.256 21.6015V31.1719Z" fill="black"/>
<path d="M24.8889 30.0781H10.1232C10.0507 30.0781 9.98116 30.0493 9.92988 29.998C9.8786 29.9468 9.84979 29.8772 9.84979 29.8047V21.6016C9.84979 21.529 9.8786 21.4595 9.92988 21.4082C9.98116 21.3569 10.0507 21.3281 10.1232 21.3281H15.4596C15.5322 21.3281 15.6017 21.3569 15.653 21.4082C15.7043 21.4595 15.7331 21.529 15.7331 21.6016C15.7331 21.6741 15.7043 21.7436 15.653 21.7949C15.6017 21.8462 15.5322 21.875 15.4596 21.875H10.3967V29.5312H24.6154V21.875H19.6821C19.6095 21.875 19.54 21.8462 19.4887 21.7949C19.4374 21.7436 19.4086 21.6741 19.4086 21.6016C19.4086 21.529 19.4374 21.4595 19.4887 21.4082C19.54 21.3569 19.6095 21.3281 19.6821 21.3281H24.8889C24.9614 21.3281 25.0309 21.3569 25.0822 21.4082C25.1335 21.4595 25.1623 21.529 25.1623 21.6016V29.8047C25.1623 29.8772 25.1335 29.9468 25.0822 29.998C25.0309 30.0493 24.9614 30.0781 24.8889 30.0781ZM25.4357 33.3594H9.57635C8.52089 33.3594 7.66229 32.5008 7.66229 31.4453V30.8984C7.66229 30.8259 7.6911 30.7564 7.74238 30.7051C7.79366 30.6538 7.86321 30.625 7.93573 30.625H27.0764C27.1489 30.625 27.2184 30.6538 27.2697 30.7051C27.321 30.7564 27.3498 30.8259 27.3498 30.8984V31.4453C27.3498 32.5008 26.4907 33.3594 25.4357 33.3594ZM8.20917 31.1719V31.4453C8.20917 32.1989 8.82276 32.8125 9.57635 32.8125H25.4357C26.1893 32.8125 26.8029 32.1989 26.8029 31.4453V31.1719H8.20917Z" fill="black"/>
<path d="M19.4201 32.2656H15.592C15.5195 32.2656 15.4499 32.2368 15.3986 32.1855C15.3474 32.1343 15.3185 32.0647 15.3185 31.9922V30.8984C15.3185 30.8259 15.3474 30.7564 15.3986 30.7051C15.4499 30.6538 15.5195 30.625 15.592 30.625H19.4201C19.4926 30.625 19.5622 30.6538 19.6135 30.7051C19.6647 30.7564 19.6935 30.8259 19.6935 30.8984V31.9922C19.6935 32.0647 19.6647 32.1343 19.6135 32.1855C19.5622 32.2368 19.4926 32.2656 19.4201 32.2656ZM15.8654 31.7188H19.1467V31.1719H15.8654V31.7188ZM17.5055 22.9688C17.1462 22.9694 16.7904 22.8991 16.4583 22.7619C16.1263 22.6247 15.8246 22.4234 15.5706 22.1693C15.3165 21.9153 15.1151 21.6136 14.9779 21.2815C14.8408 20.9495 14.7705 20.5936 14.7711 20.2344C14.7711 18.7266 15.9978 17.5 17.5055 17.5C19.0132 17.5 20.2399 18.7266 20.2399 20.2344C20.2399 21.7421 19.0132 22.9688 17.5055 22.9688ZM17.5055 18.0469C17.1979 18.0472 16.8939 18.1123 16.6131 18.2379C16.3324 18.3636 16.0812 18.547 15.8761 18.7762C15.671 19.0053 15.5164 19.2752 15.4225 19.5681C15.3286 19.861 15.2975 20.1704 15.3311 20.4761C15.3898 21.0115 15.6443 21.5063 16.0456 21.8655C16.447 22.2246 16.9669 22.4228 17.5055 22.4219C18.7119 22.4219 19.693 21.4408 19.693 20.2344C19.693 19.028 18.7119 18.0469 17.5055 18.0469Z" fill="black"/>
<path d="M16.1465 20.6588C16.079 20.6587 16.0139 20.6337 15.9638 20.5886C15.9136 20.5435 15.8819 20.4814 15.8747 20.4143C15.8497 20.1851 15.8732 19.9532 15.9437 19.7336C16.0142 19.5141 16.1302 19.3119 16.284 19.1401C16.4378 18.9683 16.6261 18.8308 16.8365 18.7366C17.047 18.6424 17.2749 18.5935 17.5055 18.5932C17.578 18.5932 17.6476 18.622 17.6988 18.6733C17.7501 18.7246 17.7789 18.7941 17.7789 18.8666C17.7789 18.9392 17.7501 19.0087 17.6988 19.06C17.6476 19.1113 17.578 19.1401 17.5055 19.1401C17.3516 19.1402 17.1995 19.1728 17.059 19.2357C16.9186 19.2986 16.7929 19.3904 16.6904 19.5051C16.5878 19.6198 16.5105 19.7549 16.4636 19.9014C16.4168 20.048 16.4013 20.2028 16.4183 20.3558C16.4225 20.394 16.4185 20.4326 16.4068 20.4691C16.395 20.5057 16.3756 20.5393 16.35 20.5679C16.3244 20.5965 16.293 20.6193 16.2579 20.635C16.2229 20.6507 16.1849 20.6587 16.1465 20.6588ZM17.5055 8.20312C17.0744 8.20385 16.6474 8.11946 16.249 7.95482C15.8505 7.79018 15.4885 7.54851 15.1837 7.24368C14.8789 6.93884 14.6372 6.57683 14.4726 6.17841C14.3079 5.77998 14.2235 5.35298 14.2242 4.92188C14.2242 3.11227 15.6959 1.64062 17.5055 1.64062C19.3151 1.64062 20.7867 3.11227 20.7867 4.92188C20.7867 6.73148 19.3151 8.20312 17.5055 8.20312ZM17.5055 2.1875C17.121 2.18796 16.741 2.2694 16.3901 2.42652C16.0391 2.58363 15.7253 2.8129 15.4689 3.09939C15.2124 3.38587 15.0193 3.72316 14.9019 4.08927C14.7845 4.45539 14.7455 4.84212 14.7875 5.2243C14.8609 5.8935 15.179 6.51197 15.6807 6.96087C16.1824 7.40977 16.8323 7.65743 17.5055 7.65625C19.0132 7.65625 20.2399 6.42961 20.2399 4.92188C20.2399 3.41414 19.0132 2.1875 17.5055 2.1875Z" fill="black"/>
<path d="M17.4945 5.46875C17.3149 5.46904 17.137 5.43387 16.971 5.36527C16.805 5.29666 16.6541 5.19597 16.5271 5.06895C16.4001 4.94194 16.2994 4.79111 16.2308 4.6251C16.1622 4.4591 16.127 4.28119 16.1273 4.10156C16.1273 3.34797 16.7409 2.73438 17.4945 2.73438C18.2481 2.73438 18.8617 3.34797 18.8617 4.10156C18.8617 4.85516 18.2481 5.46875 17.4945 5.46875ZM17.4945 3.28125C17.3791 3.28139 17.2649 3.30586 17.1596 3.35307C17.0542 3.40028 16.96 3.46916 16.8831 3.55524C16.8062 3.64131 16.7482 3.74263 16.7131 3.85259C16.6779 3.96256 16.6664 4.0787 16.6791 4.19344C16.7014 4.394 16.7969 4.57929 16.9474 4.71373C17.0979 4.84817 17.2927 4.9223 17.4945 4.92188C17.9468 4.92188 18.3148 4.55383 18.3148 4.10156C18.3148 3.6493 17.9468 3.28125 17.4945 3.28125ZM16.9586 23.9941C16.8865 23.9941 16.8174 23.9657 16.7662 23.915C16.715 23.8643 16.6859 23.7955 16.6851 23.7234L16.6736 22.698C16.6733 22.6621 16.68 22.6265 16.6934 22.5932C16.7068 22.5599 16.7267 22.5295 16.7518 22.5039C16.7769 22.4782 16.8069 22.4578 16.8399 22.4437C16.873 22.4297 16.9084 22.4222 16.9444 22.4219C17.0926 22.4284 17.2194 22.5411 17.2205 22.6926L17.232 23.718C17.2324 23.7539 17.2257 23.7895 17.2122 23.8228C17.1988 23.8561 17.179 23.8865 17.1539 23.9121C17.1287 23.9378 17.0988 23.9582 17.0657 23.9723C17.0327 23.9864 16.9972 23.9938 16.9613 23.9941H16.9586ZM18.0523 23.9941C17.9803 23.9941 17.9111 23.9657 17.8599 23.915C17.8087 23.8643 17.7796 23.7955 17.7789 23.7234L17.7674 22.698C17.767 22.6621 17.7738 22.6265 17.7872 22.5932C17.8006 22.5599 17.8204 22.5295 17.8456 22.5039C17.8707 22.4782 17.9006 22.4578 17.9337 22.4437C17.9667 22.4297 18.0022 22.4222 18.0381 22.4219C18.1863 22.4284 18.3132 22.5411 18.3143 22.6926L18.3258 23.718C18.3261 23.7539 18.3194 23.7895 18.306 23.8228C18.2926 23.8561 18.2727 23.8865 18.2476 23.9121C18.2225 23.9378 18.1925 23.9582 18.1595 23.9723C18.1265 23.9864 18.091 23.9938 18.0551 23.9941H18.0523Z" fill="black"/>
<path d="M17.5055 27.8906C16.9023 27.8906 16.4117 27.4001 16.4117 26.7969V23.789C16.4117 23.7165 16.4405 23.647 16.4918 23.5957C16.5431 23.5444 16.6127 23.5156 16.6852 23.5156H18.3258C18.3983 23.5156 18.4679 23.5444 18.5191 23.5957C18.5704 23.647 18.5992 23.7165 18.5992 23.789V26.7969C18.5992 27.4001 18.1087 27.8906 17.5055 27.8906ZM16.9586 24.0625V26.7969C16.9586 27.0982 17.2042 27.3437 17.5055 27.3437C17.8068 27.3437 18.0524 27.0982 18.0524 26.7969V24.0625H16.9586ZM6.85947 12.7345C6.78692 12.7345 6.71732 12.7058 6.66588 12.6547L5.50541 11.4942C5.4556 11.4426 5.42804 11.3736 5.42866 11.3019C5.42928 11.2302 5.45804 11.1616 5.50874 11.1109C5.55944 11.0602 5.62802 11.0314 5.69971 11.0308C5.77141 11.0302 5.84048 11.0578 5.89205 11.1076L7.05252 12.268C7.09064 12.3063 7.11658 12.3549 7.12708 12.4079C7.13758 12.4609 7.13217 12.5157 7.11152 12.5656C7.09088 12.6155 7.05592 12.6582 7.01107 12.6882C6.96621 12.7183 6.91346 12.7344 6.85947 12.7345ZM7.63275 11.9607C7.5602 11.9607 7.4906 11.932 7.43916 11.8808L6.66588 11.1076C6.61607 11.056 6.58851 10.9869 6.58913 10.9152C6.58975 10.8435 6.61851 10.775 6.66921 10.7243C6.7199 10.6736 6.78849 10.6448 6.86018 10.6442C6.93187 10.6436 7.00095 10.6711 7.05252 10.7209L7.8258 11.4942C7.86392 11.5324 7.88986 11.5811 7.90036 11.6341C7.91086 11.687 7.90545 11.7419 7.8848 11.7918C7.86416 11.8417 7.8292 11.8844 7.78435 11.9144C7.73949 11.9445 7.68674 11.9606 7.63275 11.9607ZM23.6524 16.7688C23.4424 16.7688 23.2324 16.689 23.0721 16.5293L21.525 14.9827C21.3712 14.8289 21.2848 14.6203 21.2848 14.4028C21.2848 14.1852 21.3712 13.9766 21.525 13.8228L24.232 11.1158C24.386 10.9622 24.5946 10.876 24.812 10.876C25.0294 10.876 25.238 10.9622 25.392 11.1158L26.9391 12.6629C27.0938 12.8176 27.1792 13.0238 27.1792 13.2431C27.1792 13.4624 27.0938 13.6686 26.9391 13.8233L24.232 16.5298C24.1558 16.6058 24.0654 16.666 23.966 16.707C23.8665 16.748 23.7599 16.769 23.6524 16.7688ZM24.8123 11.422C24.7397 11.4219 24.6701 11.4507 24.6187 11.5019L21.9117 14.2089C21.8606 14.2604 21.832 14.33 21.832 14.4025C21.832 14.475 21.8606 14.5446 21.9117 14.5961L23.4582 16.1426C23.5096 16.1938 23.5791 16.2225 23.6515 16.2225C23.724 16.2225 23.7935 16.1938 23.8449 16.1426L26.5519 13.4356C26.6032 13.3842 26.632 13.3146 26.632 13.242C26.632 13.1694 26.6032 13.0998 26.5519 13.0484L25.0053 11.5013C24.9602 11.4558 24.9002 11.4279 24.8363 11.4226L24.8123 11.422Z" fill="black"/>
<path d="M21.56 14.7093C21.4926 14.7094 21.4276 14.6847 21.3773 14.6398C21.327 14.5949 21.2951 14.5331 21.2877 14.4661C21.2802 14.3991 21.2977 14.3318 21.3369 14.2769C21.3761 14.2221 21.4341 14.1836 21.4999 14.169L23.6114 13.6921C23.8957 13.6281 24.1205 13.4028 24.1845 13.119L24.6285 11.1524C24.6459 11.0831 24.6897 11.0234 24.7506 10.986C24.8115 10.9486 24.8845 10.9365 24.9542 10.9523C25.0238 10.9681 25.0846 11.0105 25.1234 11.0705C25.1621 11.1305 25.1759 11.2033 25.1617 11.2733L24.7177 13.2398C24.6626 13.4802 24.5408 13.7002 24.3665 13.8746C24.1921 14.049 23.9721 14.1707 23.7317 14.2258L21.6202 14.7027C21.6004 14.7071 21.5803 14.7093 21.56 14.7093ZM27.9142 12.7345C27.8601 12.7345 27.8073 12.7185 27.7624 12.6885C27.7174 12.6585 27.6824 12.6158 27.6617 12.5659C27.641 12.516 27.6355 12.461 27.646 12.408C27.6565 12.355 27.6824 12.3063 27.7206 12.268L28.8805 11.1076C28.9321 11.0578 29.0011 11.0302 29.0728 11.0308C29.1445 11.0314 29.2131 11.0602 29.2638 11.1109C29.3145 11.1616 29.3433 11.2302 29.3439 11.3019C29.3445 11.3736 29.3169 11.4426 29.2671 11.4942L28.1072 12.6547C28.0819 12.68 28.0518 12.7001 28.0186 12.7138C27.9855 12.7275 27.95 12.7346 27.9142 12.7345ZM27.1409 11.9607C27.0868 11.9607 27.034 11.9447 26.9891 11.9146C26.9441 11.8846 26.9091 11.842 26.8884 11.7921C26.8677 11.7421 26.8622 11.6872 26.8727 11.6342C26.8832 11.5812 26.9091 11.5325 26.9473 11.4942L27.7206 10.7209C27.7721 10.6711 27.8412 10.6436 27.9129 10.6442C27.9846 10.6448 28.0532 10.6736 28.1039 10.7243C28.1546 10.775 28.1833 10.8435 28.184 10.9152C28.1846 10.9869 28.157 11.056 28.1072 11.1076L27.3339 11.8808C27.3086 11.9062 27.2785 11.9263 27.2454 11.94C27.2122 11.9537 27.1767 11.9607 27.1409 11.9607ZM18.5992 16.4117H16.4117C16.304 16.4118 16.1973 16.3906 16.0977 16.3494C15.9982 16.3082 15.9077 16.2478 15.8315 16.1716C15.7553 16.0954 15.6949 16.005 15.6537 15.9054C15.6125 15.8058 15.5914 15.6991 15.5914 15.5914V11.7633C15.5914 11.5457 15.6779 11.3371 15.8317 11.1832C15.9855 11.0294 16.1942 10.943 16.4117 10.943H18.5992C19.0515 10.943 19.4196 11.311 19.4196 11.7633V15.5914C19.4196 16.0437 19.0515 16.4117 18.5992 16.4117ZM16.4117 11.4898C16.3758 11.4898 16.3402 11.4968 16.307 11.5105C16.2738 11.5242 16.2436 11.5444 16.2182 11.5698C16.1928 11.5952 16.1727 11.6253 16.159 11.6585C16.1453 11.6917 16.1382 11.7273 16.1383 11.7633V15.5914C16.1382 15.6273 16.1451 15.663 16.1588 15.6962C16.1725 15.7294 16.1927 15.7596 16.2181 15.7851C16.2435 15.8105 16.2737 15.8306 16.3069 15.8443C16.3402 15.858 16.3758 15.865 16.4117 15.8648H18.5992C18.6718 15.8648 18.7413 15.836 18.7926 15.7847C18.8439 15.7335 18.8727 15.6639 18.8727 15.5914V11.7633C18.8727 11.6907 18.8439 11.6212 18.7926 11.5699C18.7413 11.5186 18.6718 11.4898 18.5992 11.4898H16.4117Z" fill="black"/>
<path d="M16.0497 16.2745C16.0008 16.2746 15.9527 16.2615 15.9105 16.2366C15.8683 16.2118 15.8336 16.176 15.81 16.1331C15.7864 16.0902 15.7748 16.0418 15.7764 15.9928C15.7779 15.9439 15.7926 15.8963 15.8189 15.855L16.975 14.0246C17.0512 13.9031 17.0915 13.7625 17.0915 13.6191C17.0915 13.4757 17.0512 13.3351 16.975 13.2136L15.8982 11.5095C15.8791 11.4792 15.8661 11.4453 15.86 11.4099C15.8539 11.3745 15.8548 11.3382 15.8627 11.3032C15.8707 11.2682 15.8854 11.235 15.9061 11.2057C15.9269 11.1763 15.9532 11.1514 15.9835 11.1322C16.0139 11.113 16.0478 11.1 16.0832 11.0939C16.1186 11.0878 16.1548 11.0888 16.1899 11.0967C16.2249 11.1046 16.2581 11.1194 16.2874 11.1401C16.3167 11.1608 16.3417 11.1871 16.3609 11.2175L17.4377 12.9216C17.5688 13.1306 17.6383 13.3724 17.6383 13.6191C17.6383 13.8658 17.5688 14.1076 17.4377 14.3166L16.281 16.147C16.2563 16.186 16.2221 16.2181 16.1817 16.2404C16.1413 16.2627 16.0959 16.2744 16.0497 16.2745ZM19.1461 10.3852C19.0736 10.3852 19.0041 10.3563 18.9528 10.3051C18.9015 10.2538 18.8727 10.1842 18.8727 10.1117V9.01797C18.8727 8.94545 18.9015 8.8759 18.9528 8.82462C19.0041 8.77334 19.0736 8.74453 19.1461 8.74453C19.2186 8.74453 19.2882 8.77334 19.3395 8.82462C19.3908 8.8759 19.4196 8.94545 19.4196 9.01797V10.1117C19.4196 10.1842 19.3908 10.2538 19.3395 10.3051C19.2882 10.3563 19.2186 10.3852 19.1461 10.3852ZM15.8649 10.3852C15.7924 10.3852 15.7228 10.3563 15.6715 10.3051C15.6202 10.2538 15.5914 10.1842 15.5914 10.1117V9.01797C15.5914 8.94545 15.6202 8.8759 15.6715 8.82462C15.7228 8.77334 15.7924 8.74453 15.8649 8.74453C15.9374 8.74453 16.0069 8.77334 16.0582 8.82462C16.1095 8.8759 16.1383 8.94545 16.1383 9.01797V10.1117C16.1383 10.1842 16.1095 10.2538 16.0582 10.3051C16.0069 10.3563 15.9374 10.3852 15.8649 10.3852ZM16.9586 10.3852C16.8861 10.3852 16.8166 10.3563 16.7653 10.3051C16.714 10.2538 16.6852 10.1842 16.6852 10.1117V9.56484C16.6852 9.49232 16.714 9.42277 16.7653 9.37149C16.8166 9.32021 16.8861 9.29141 16.9586 9.29141C17.0311 9.29141 17.1007 9.32021 17.152 9.37149C17.2033 9.42277 17.2321 9.49232 17.2321 9.56484V10.1117C17.2321 10.1842 17.2033 10.2538 17.152 10.3051C17.1007 10.3563 17.0311 10.3852 16.9586 10.3852ZM18.0524 10.3852C17.9799 10.3852 17.9103 10.3563 17.859 10.3051C17.8077 10.2538 17.7789 10.1842 17.7789 10.1117V9.56484C17.7789 9.49232 17.8077 9.42277 17.859 9.37149C17.9103 9.32021 17.9799 9.29141 18.0524 9.29141C18.1249 9.29141 18.1944 9.32021 18.2457 9.37149C18.297 9.42277 18.3258 9.49232 18.3258 9.56484V10.1117C18.3258 10.1842 18.297 10.2538 18.2457 10.3051C18.1944 10.3563 18.1249 10.3852 18.0524 10.3852ZM19.2074 7.67484C19.1609 7.67489 19.1151 7.66308 19.0745 7.64052C19.0338 7.61797 18.9996 7.58542 18.975 7.54595C18.9504 7.50648 18.9363 7.4614 18.934 7.41496C18.9317 7.36852 18.9413 7.32226 18.9618 7.28055C19.0767 7.04594 19.1352 6.80422 19.1352 6.5625C19.1337 6.28185 19.0605 6.00623 18.9225 5.76186C18.7844 5.51749 18.5862 5.31248 18.3466 5.16633C17.8632 5.55461 17.1265 5.55406 16.6431 5.16633C16.3772 5.32845 16.1628 5.56274 16.0248 5.84195C15.8868 6.12116 15.831 6.43381 15.8638 6.74352C15.8818 6.90758 15.9289 7.07055 16.0082 7.24281C16.0334 7.2976 16.0399 7.3592 16.0265 7.41803C16.0131 7.47685 15.9806 7.5296 15.9341 7.56804C15.8876 7.60649 15.8297 7.62847 15.7694 7.63058C15.7091 7.63269 15.6498 7.61479 15.6007 7.57969C15.1768 7.27777 14.8308 6.87924 14.5914 6.41706C14.3521 5.95488 14.2262 5.44235 14.2242 4.92188C14.2242 3.11227 15.6959 1.64062 17.5055 1.64062C19.3151 1.64062 20.7867 3.11227 20.7867 4.92188C20.7865 5.45446 20.6566 5.97898 20.4084 6.45021C20.1603 6.92143 19.8012 7.32521 19.3621 7.62672C19.3165 7.65779 19.2626 7.67454 19.2074 7.67484ZM18.3023 4.5593C18.3423 4.55944 18.3819 4.56821 18.4182 4.585C18.7944 4.76125 19.1129 5.04063 19.3366 5.39068C19.5603 5.74073 19.6801 6.14707 19.6821 6.5625V6.57562C20.044 6.1003 20.24 5.51932 20.2399 4.92188C20.2399 3.41414 19.0132 2.1875 17.5055 2.1875C17.121 2.18796 16.741 2.2694 16.3901 2.42652C16.0391 2.58363 15.7253 2.8129 15.4689 3.09939C15.2124 3.38587 15.0193 3.72316 14.9019 4.08927C14.7845 4.45539 14.7455 4.84212 14.7875 5.2243C14.84 5.69953 15.0216 6.1507 15.3071 6.53406C15.3143 6.12348 15.4365 5.72316 15.66 5.37861C15.8834 5.03406 16.199 4.7591 16.5709 4.585C16.6239 4.56013 16.6835 4.55293 16.7408 4.56445C16.7982 4.57596 16.8504 4.6056 16.8897 4.64898C16.967 4.73222 17.0606 4.79861 17.1648 4.84402C17.2689 4.88942 17.3812 4.91285 17.4948 4.91285C17.6084 4.91285 17.7208 4.88942 17.8249 4.84402C17.929 4.79861 18.0227 4.73222 18.1 4.64898C18.1257 4.62086 18.1569 4.59838 18.1917 4.58294C18.2266 4.5675 18.2642 4.55945 18.3023 4.5593ZM4.92737 10.3906C4.49627 10.3913 4.06927 10.307 3.67084 10.1423C3.27242 9.97768 2.91041 9.73601 2.60557 9.43118C2.30074 9.12634 2.05907 8.76433 1.89443 8.36591C1.72978 7.96748 1.6454 7.54048 1.64612 7.10938C1.64612 5.29977 3.11776 3.82812 4.92737 3.82812C6.73698 3.82812 8.20862 5.29977 8.20862 7.10938C8.20862 8.91898 6.73698 10.3906 4.92737 10.3906ZM4.92737 4.375C4.5429 4.37546 4.16283 4.4569 3.81193 4.61402C3.46102 4.77113 3.14714 5.0004 2.89073 5.28689C2.63432 5.57337 2.44113 5.91066 2.32374 6.27677C2.20635 6.64289 2.16739 7.02962 2.2094 7.4118C2.28278 8.081 2.60088 8.69947 3.10257 9.14837C3.60427 9.59727 4.25416 9.84493 4.92737 9.84375C6.43511 9.84375 7.66175 8.61711 7.66175 7.10938C7.66175 5.60164 6.43511 4.375 4.92737 4.375Z" fill="black"/>
<path d="M4.91638 7.65625C4.73676 7.65654 4.55885 7.62137 4.39284 7.55277C4.22684 7.48416 4.07601 7.38346 3.94899 7.25645C3.82198 7.12944 3.72129 6.97861 3.65268 6.8126C3.58407 6.6466 3.54891 6.46868 3.5492 6.28906C3.5492 5.53547 4.16279 4.92188 4.91638 4.92188C5.66998 4.92188 6.28357 5.53547 6.28357 6.28906C6.28357 7.04266 5.66998 7.65625 4.91638 7.65625ZM4.91638 5.46875C4.80094 5.46889 4.68682 5.49336 4.58147 5.54057C4.47612 5.58778 4.3819 5.65667 4.30496 5.74274C4.22802 5.82881 4.17009 5.93013 4.13495 6.0401C4.0998 6.15006 4.08823 6.2662 4.10099 6.38094C4.12323 6.5815 4.21877 6.76679 4.36926 6.90123C4.51975 7.03567 4.71459 7.1098 4.91638 7.10937C5.36865 7.10937 5.7367 6.74133 5.7367 6.28906C5.7367 5.8368 5.36865 5.46875 4.91638 5.46875Z" fill="black"/>
<path d="M6.62924 9.86234C6.58275 9.86239 6.537 9.85058 6.49634 9.82802C6.45568 9.80547 6.42144 9.77292 6.39686 9.73345C6.37228 9.69398 6.35818 9.6489 6.35587 9.60246C6.35357 9.55602 6.36314 9.50976 6.3837 9.46805C6.49854 9.23344 6.55706 8.99172 6.55706 8.75C6.55558 8.46935 6.48235 8.19373 6.34432 7.94936C6.2063 7.70499 6.00806 7.49998 5.76846 7.35383C5.28502 7.74211 4.54838 7.74156 4.06495 7.35383C3.79903 7.51595 3.58462 7.75024 3.44666 8.02945C3.3087 8.30866 3.25287 8.62131 3.28565 8.93102C3.3037 9.09508 3.35073 9.25805 3.43002 9.43031C3.45529 9.4851 3.46172 9.5467 3.44832 9.60553C3.43493 9.66435 3.40245 9.7171 3.35596 9.75554C3.30946 9.79399 3.25155 9.81597 3.19126 9.81808C3.13097 9.82019 3.07167 9.80229 3.0226 9.76719C2.59864 9.46527 2.25266 9.06674 2.0133 8.60456C1.77394 8.14238 1.64807 7.62985 1.64612 7.10938C1.64612 5.29977 3.11776 3.82812 4.92737 3.82812C6.73698 3.82812 8.20862 5.29977 8.20862 7.10938C8.20833 7.64196 8.0785 8.16648 7.83031 8.63771C7.58212 9.10893 7.22303 9.51271 6.78401 9.81422C6.73835 9.84529 6.68447 9.86204 6.62924 9.86234ZM5.72416 6.7468C5.76421 6.74694 5.80375 6.75571 5.8401 6.7725C6.21625 6.94866 6.53469 7.22794 6.75841 7.57789C6.98213 7.92785 7.10194 8.3341 7.10393 8.74945V8.76258C7.46604 8.2873 7.6622 7.70633 7.66229 7.10883C7.66229 5.60109 6.43565 4.37445 4.92791 4.37445C4.54344 4.37492 4.16337 4.45636 3.81247 4.61347C3.46156 4.77059 3.14768 4.99985 2.89127 5.28634C2.63486 5.57283 2.44167 5.91011 2.32428 6.27623C2.20689 6.64234 2.16793 7.02908 2.20995 7.41125C2.26245 7.88648 2.44401 8.33766 2.72948 8.72102C2.73669 8.31043 2.85895 7.91011 3.08237 7.56556C3.30579 7.22101 3.62139 6.94605 3.99331 6.77195C4.04632 6.74717 4.10587 6.74002 4.16324 6.75153C4.22061 6.76304 4.27279 6.79262 4.31213 6.83594C4.38943 6.91917 4.48306 6.98557 4.58718 7.03097C4.6913 7.07637 4.80366 7.0998 4.91725 7.0998C5.03084 7.0998 5.1432 7.07637 5.24732 7.03097C5.35144 6.98557 5.44508 6.91917 5.52237 6.83594C5.54803 6.80796 5.57921 6.78559 5.61394 6.77025C5.64867 6.75491 5.6862 6.74692 5.72416 6.7468Z" fill="black"/>
<path d="M30.0726 10.3906C29.6415 10.3913 29.2145 10.307 28.8161 10.1423C28.4177 9.97768 28.0557 9.73601 27.7508 9.43118C27.446 9.12634 27.2043 8.76433 27.0397 8.36591C26.875 7.96748 26.7907 7.54048 26.7914 7.10938C26.7914 5.29977 28.263 3.82812 30.0726 3.82812C31.8822 3.82812 33.3539 5.29977 33.3539 7.10938C33.3539 8.91898 31.8817 10.3906 30.0726 10.3906ZM30.0726 4.375C29.6882 4.37546 29.3081 4.4569 28.9572 4.61402C28.6063 4.77113 28.2924 5.0004 28.036 5.28689C27.7796 5.57338 27.5864 5.91066 27.469 6.27677C27.3516 6.64289 27.3127 7.02962 27.3547 7.4118C27.4279 8.08104 27.746 8.69959 28.2477 9.14851C28.7494 9.59743 29.3994 9.84505 30.0726 9.84375C31.5804 9.84375 32.807 8.61711 32.807 7.10938C32.807 5.60164 31.5804 4.375 30.0726 4.375Z" fill="black"/>
<path d="M30.0612 7.65625C29.8815 7.65661 29.7036 7.62149 29.5375 7.55291C29.3715 7.48433 29.2206 7.38364 29.0936 7.25661C28.9666 7.12959 28.8659 6.97873 28.7973 6.81269C28.7287 6.64665 28.6936 6.46871 28.694 6.28906C28.694 5.53547 29.3076 4.92188 30.0612 4.92188C30.8148 4.92188 31.4283 5.53547 31.4283 6.28906C31.4283 7.04266 30.8148 7.65625 30.0612 7.65625ZM30.0612 5.46875C29.9459 5.46891 29.8319 5.49334 29.7267 5.54046C29.6215 5.58757 29.5273 5.6563 29.4504 5.74219C29.3735 5.82808 29.3155 5.92919 29.2803 6.03896C29.245 6.14873 29.2333 6.26469 29.2458 6.3793C29.2676 6.58016 29.363 6.76584 29.5135 6.90062C29.6641 7.0354 29.8591 7.10975 30.0612 7.10938C30.5134 7.10938 30.8815 6.74133 30.8815 6.28906C30.8815 5.8368 30.5134 5.46875 30.0612 5.46875Z" fill="black"/>
<path d="M31.774 9.86234C31.7275 9.86239 31.6817 9.85058 31.6411 9.82802C31.6004 9.80547 31.5662 9.77292 31.5416 9.73345C31.517 9.69398 31.5029 9.6489 31.5006 9.60246C31.4983 9.55602 31.5079 9.50976 31.5284 9.46805C31.6433 9.23398 31.7018 8.99227 31.7018 8.75C31.7003 8.46935 31.6271 8.19373 31.489 7.94936C31.351 7.70499 31.1528 7.49998 30.9132 7.35383C30.4303 7.74156 29.6931 7.74156 29.2102 7.35383C28.9441 7.51603 28.7296 7.7505 28.5916 8.02992C28.4536 8.30935 28.3979 8.62223 28.4309 8.93211C28.449 9.09562 28.4965 9.25859 28.5753 9.43031C28.6005 9.4851 28.607 9.5467 28.5936 9.60553C28.5802 9.66435 28.5477 9.7171 28.5012 9.75554C28.4547 9.79399 28.3968 9.81597 28.3365 9.81808C28.2762 9.82019 28.2169 9.80229 28.1679 9.76719C27.7441 9.46508 27.3983 9.06651 27.1589 8.60437C26.9196 8.14224 26.7936 7.6298 26.7914 7.10938C26.7914 5.29977 28.263 3.82812 30.0726 3.82812C31.8822 3.82812 33.3539 5.29977 33.3539 7.10938C33.3536 7.64202 33.2237 8.16659 32.9754 8.63783C32.7271 9.10906 32.3679 9.5128 31.9287 9.81422C31.8831 9.84529 31.8292 9.86204 31.774 9.86234ZM30.8689 6.7468C30.9083 6.7468 30.9476 6.755 30.9848 6.7725C31.361 6.9486 31.6795 7.22787 31.9032 7.57784C32.1269 7.92781 32.2467 8.33409 32.2486 8.74945V8.76312C32.6108 8.28768 32.807 7.70651 32.807 7.10883C32.807 5.60109 31.5804 4.37445 30.0726 4.37445C29.6882 4.37492 29.3081 4.45636 28.9572 4.61347C28.6063 4.77059 28.2924 4.99985 28.036 5.28634C27.7796 5.57283 27.5864 5.91011 27.469 6.27623C27.3516 6.64234 27.3127 7.02908 27.3547 7.41125C27.4072 7.88648 27.5887 8.33766 27.8736 8.72102C27.8809 8.31051 28.0032 7.91028 28.2266 7.56582C28.45 7.22137 28.7656 6.94651 29.1375 6.7725C29.1904 6.74755 29.25 6.74029 29.3075 6.75182C29.3649 6.76334 29.4171 6.79302 29.4563 6.83648C29.5336 6.91972 29.6272 6.98611 29.7313 7.03152C29.8355 7.07692 29.9478 7.10035 30.0614 7.10035C30.175 7.10035 30.2874 7.07692 30.3915 7.03152C30.4956 6.98611 30.5892 6.91972 30.6665 6.83648C30.6922 6.80836 30.7235 6.78588 30.7583 6.77044C30.7931 6.755 30.8308 6.74695 30.8689 6.7468Z" fill="black"/>
</svg>
