<svg width="35" height="35" viewBox="0 0 35 35" fill="none" xmlns="http://www.w3.org/2000/svg">
<path d="M12.2979 18.3955C12.7385 18.6868 13.2531 18.8466 13.7812 18.8563H13.8305C14.3754 18.8536 14.9079 18.6934 15.3638 18.3948C15.4221 18.3588 15.4726 18.3114 15.5123 18.2555C15.5519 18.1995 15.58 18.1362 15.5948 18.0693C15.6096 18.0023 15.6108 17.9331 15.5983 17.8656C15.5858 17.7982 15.56 17.7339 15.5222 17.6767C15.4845 17.6194 15.4357 17.5703 15.3786 17.5323C15.3216 17.4942 15.2575 17.468 15.1901 17.4552C15.1228 17.4423 15.0535 17.4431 14.9865 17.4575C14.9194 17.4719 14.856 17.4996 14.7998 17.539C14.5127 17.7295 14.1757 17.8311 13.8312 17.8311C13.4866 17.8311 13.1496 17.7295 12.8625 17.539C12.749 17.4657 12.6112 17.4402 12.479 17.468C12.3468 17.4958 12.2309 17.5746 12.1565 17.6874C12.0821 17.8001 12.0552 17.9377 12.0817 18.0702C12.1081 18.2027 12.1858 18.3193 12.2979 18.3948V18.3955ZM16.1062 14.5742C16.2421 14.5742 16.3725 14.5202 16.4687 14.4241C16.5648 14.3279 16.6188 14.1975 16.6188 14.0615V13.3985C16.6188 13.2625 16.5648 13.1321 16.4687 13.0359C16.3725 12.9398 16.2421 12.8858 16.1062 12.8858C15.9702 12.8858 15.8398 12.9398 15.7436 13.0359C15.6475 13.1321 15.5935 13.2625 15.5935 13.3985V14.0602C15.5933 14.1276 15.6064 14.1944 15.6321 14.2568C15.6578 14.3192 15.6955 14.3758 15.7431 14.4236C15.7908 14.4713 15.8473 14.5092 15.9096 14.5351C15.9719 14.5609 16.0387 14.5742 16.1062 14.5742ZM32.4023 25.9609L28.4785 23.8472C28.3651 23.7856 28.2381 23.7534 28.109 23.7534C27.98 23.7534 27.853 23.7856 27.7396 23.8472L23.8157 25.9609C23.6919 26.0276 23.5885 26.1266 23.5164 26.2474C23.4443 26.3682 23.4062 26.5062 23.4062 26.6469C23.4062 26.7875 23.4443 26.9255 23.5164 27.0463C23.5885 27.1671 23.6919 27.2661 23.8157 27.3328L24.8336 27.8797V30.502C24.8333 30.7396 24.9035 30.972 25.0355 31.1696C25.1674 31.3673 25.355 31.5213 25.5746 31.6121L25.9772 31.7803C27.3422 32.3445 28.8752 32.3445 30.2401 31.7803L30.6435 31.6121C30.863 31.5213 31.0505 31.3672 31.1823 31.1696C31.3141 30.9719 31.3843 30.7395 31.3838 30.502V27.8811L31.8049 27.6548V28.8928C31.8049 29.0288 31.8589 29.1592 31.955 29.2553C32.0512 29.3515 32.1816 29.4055 32.3176 29.4055C32.4536 29.4055 32.584 29.3515 32.6801 29.2553C32.7763 29.1592 32.8303 29.0288 32.8303 28.8928V26.6465C32.83 26.5682 32.8117 26.4911 32.777 26.4209C32.7177 26.2241 32.583 26.0588 32.4023 25.9609ZM30.3584 30.502C30.3584 30.5371 30.348 30.5714 30.3285 30.6006C30.3091 30.6298 30.2814 30.6525 30.249 30.666L29.8457 30.8342C28.7333 31.2936 27.4841 31.2936 26.3717 30.8342L25.9684 30.666C25.936 30.6525 25.9083 30.6298 25.8888 30.6006C25.8694 30.5714 25.859 30.5371 25.859 30.502V28.4375L27.7396 29.4499C27.853 29.5114 27.98 29.5436 28.109 29.5436C28.2381 29.5436 28.3651 29.5114 28.4785 29.4499L30.3611 28.4375L30.3584 30.502ZM30.6284 27.123L28.1121 28.4792L25.5965 27.1237H25.5917L24.7078 26.6451L28.1114 24.8145L31.5137 26.6465L30.6284 27.123ZM13.8271 27.8278C13.7256 27.8278 13.6265 27.8578 13.5422 27.9142C13.4579 27.9705 13.3922 28.0506 13.3534 28.1443C13.3146 28.2379 13.3044 28.341 13.3242 28.4405C13.344 28.5399 13.3928 28.6313 13.4645 28.703C13.5362 28.7747 13.6276 28.8235 13.727 28.8433C13.8265 28.8631 13.9296 28.8529 14.0233 28.8141C14.1169 28.7753 14.197 28.7096 14.2533 28.6253C14.3097 28.541 14.3397 28.4419 14.3397 28.3405C14.3397 28.2045 14.2857 28.0741 14.1896 27.9779C14.0934 27.8818 13.963 27.8278 13.8271 27.8278ZM33.332 19.4537H31.0604V19.438C31.0601 19.0121 30.8907 18.6037 30.5895 18.3025C30.2883 18.0013 29.8799 17.8319 29.454 17.8316H26.788C26.362 17.8319 25.9536 18.0013 25.6525 18.3025C25.3513 18.6037 25.1819 19.0121 25.1815 19.438V19.4537H22.9093C22.4671 19.4543 22.0431 19.6302 21.7304 19.9429C21.4178 20.2556 21.2419 20.6795 21.2413 21.1217V22.8081L20.166 22.599C20.1304 22.5515 20.0903 22.5076 20.0464 22.4677L18.8453 21.374C18.7061 21.247 18.5314 21.1658 18.3445 21.1413C18.1577 21.1169 17.9679 21.1503 17.8008 21.2372L17.4918 20.7792C18.1418 20.2419 18.6651 19.5678 19.0246 18.8049C19.384 18.042 19.5707 17.2092 19.5713 16.3659H19.9773C20.347 16.365 20.7012 16.2177 20.9624 15.9562C21.2237 15.6947 21.3707 15.3404 21.3712 14.9707V13.5967C21.3706 13.2267 21.2234 12.8721 20.9617 12.6105C20.7 12.3489 20.3453 12.2019 19.9753 12.2015H19.5699V11.6621C19.5702 11.4408 19.5043 11.2243 19.3806 11.0407C19.505 10.749 19.5694 10.4351 19.5699 10.1179V6.2843C19.5696 6.05779 19.4794 5.84065 19.3192 5.68048C19.1591 5.52031 18.9419 5.43017 18.7154 5.42981H10.69C9.19912 5.42981 8.08418 6.8845 8.08418 8.18538V12.2035H7.67881C7.30889 12.2039 6.95422 12.351 6.69264 12.6126C6.43107 12.8742 6.28396 13.2288 6.28359 13.5988V14.9707C6.28396 15.3407 6.43107 15.6953 6.69264 15.9569C6.95422 16.2185 7.30889 16.3656 7.67881 16.3659H8.08486C8.08581 17.2175 8.27649 18.0581 8.64306 18.8267C9.00963 19.5953 9.54287 20.2726 10.204 20.8093L9.90391 21.2612C9.73386 21.1598 9.5357 21.1158 9.33873 21.1357C9.14175 21.1557 8.95643 21.2385 8.81016 21.3719L7.60908 22.4657C7.55363 22.516 7.5045 22.573 7.46279 22.6352L4.39893 23.1971L4.36885 23.2039C2.13691 23.7508 0.450488 25.6273 0.172266 27.8674C0.166341 27.918 0.160872 27.9686 0.155859 28.0192L0 29.6106C0 29.627 0 29.6434 0 29.6598V32.4365C0.000723807 33.1162 0.271036 33.7678 0.751624 34.2484C1.23221 34.729 1.88382 34.9993 2.56348 35H22.7869H22.8279C22.8546 35 22.8819 35 22.9093 35H33.332C33.7743 34.9997 34.1983 34.8238 34.5111 34.5111C34.8238 34.1984 34.9996 33.7743 35 33.3321V21.1231C34.9998 20.6806 34.8241 20.2563 34.5113 19.9434C34.1986 19.6304 33.7745 19.4543 33.332 19.4537ZM19.5699 13.2289H19.9753C20.0734 13.2289 20.1676 13.2679 20.237 13.3372C20.3065 13.4065 20.3456 13.5006 20.3458 13.5988V14.9707C20.3456 15.0689 20.3065 15.1629 20.237 15.2323C20.1676 15.3016 20.0734 15.3406 19.9753 15.3406H19.5699V13.2289ZM8.08555 15.3426H7.68018C7.58209 15.3426 7.48803 15.3036 7.41867 15.2343C7.34932 15.1649 7.31035 15.0709 7.31035 14.9728V13.5988C7.31035 13.5007 7.34932 13.4066 7.41867 13.3372C7.48803 13.2679 7.58209 13.2289 7.68018 13.2289H8.08555V15.3426ZM18.0038 22.3898C18.0216 22.3758 18.0385 22.3608 18.0544 22.3447L18.2219 22.1963L19.2903 23.1677L16.5771 27.3438L14.5824 25.4297L18.0038 22.3898ZM13.8271 24.7256L10.6866 21.9386L11.0523 21.3876C11.9088 21.8622 12.8727 22.109 13.8519 22.1046C14.831 22.1002 15.7927 21.8446 16.6448 21.3623L17.0092 21.9017L13.8271 24.7256ZM9.11025 8.18264C9.11025 7.39856 9.81572 6.45247 10.6907 6.45247H18.5452V10.1172C18.5455 10.2617 18.5224 10.4053 18.4769 10.5424H9.28047C9.22325 10.5428 9.16613 10.5474 9.10957 10.5561L9.11025 8.18264ZM9.11025 16.3591V11.7387C9.11043 11.6934 9.1285 11.6501 9.16051 11.6181C9.19252 11.586 9.23588 11.568 9.28115 11.5678H18.4495C18.4746 11.5678 18.4987 11.5777 18.5165 11.5954C18.5343 11.6131 18.5444 11.6371 18.5445 11.6621V16.3618C18.5445 17.6128 18.0476 18.8126 17.163 19.6971C16.2784 20.5817 15.0787 21.0786 13.8277 21.0786C12.5768 21.0786 11.377 20.5817 10.4925 19.6971C9.60788 18.8126 9.11094 17.6128 9.11094 16.3618L9.11025 16.3591ZM9.43359 22.1963L13.0717 25.4297L11.0742 27.3438L8.36104 23.1656L9.43359 22.1963ZM5.67998 33.9746V30.3003C5.67998 30.1643 5.62596 30.0339 5.52982 29.9378C5.43367 29.8416 5.30326 29.7876 5.16728 29.7876C5.03131 29.7876 4.9009 29.8416 4.80475 29.9378C4.70861 30.0339 4.65459 30.1643 4.65459 30.3003V33.9746H2.56348C2.15566 33.9743 1.76465 33.8121 1.47629 33.5237C1.18792 33.2354 1.02575 32.8444 1.02539 32.4365V29.6844L1.17715 28.1203C1.18057 28.0786 1.18535 28.0376 1.19082 27.9959C1.41641 26.1796 2.78564 24.6579 4.5999 24.2047L7.471 23.6783L10.2826 28.0082C10.3565 28.1224 10.4548 28.2188 10.5704 28.2904C10.686 28.362 10.816 28.4071 10.9512 28.4225C10.9866 28.4266 11.0222 28.4286 11.0578 28.4286C11.2961 28.4286 11.5251 28.336 11.6963 28.1702L13.825 26.1229L15.9537 28.1737C16.0517 28.2679 16.1693 28.3393 16.2981 28.3828C16.427 28.4263 16.5638 28.4408 16.6989 28.4252C16.8339 28.4097 16.9639 28.3645 17.0795 28.2929C17.195 28.2213 17.2933 28.125 17.3674 28.011L20.1975 23.6524L21.2399 23.8574V33.3321C21.2399 33.5527 21.2838 33.7711 21.3691 33.9746H5.67998ZM26.2069 19.438C26.2071 19.284 26.2684 19.1363 26.3773 19.0273C26.4862 18.9184 26.6339 18.8571 26.788 18.857H29.454C29.6081 18.8571 29.7557 18.9184 29.8647 19.0273C29.9736 19.1363 30.0349 19.284 30.0351 19.438V20.7368C30.0349 20.8909 29.9736 21.0386 29.8647 21.1475C29.7557 21.2564 29.6081 21.3177 29.454 21.3179H26.788C26.6339 21.3177 26.4862 21.2564 26.3773 21.1475C26.2684 21.0386 26.2071 20.8909 26.2069 20.7368V19.438ZM33.9746 33.3321C33.9746 33.5025 33.9069 33.6659 33.7864 33.7864C33.6659 33.9069 33.5025 33.9746 33.332 33.9746H22.9093C22.7389 33.9745 22.5756 33.9067 22.4551 33.7862C22.3346 33.6658 22.2669 33.5024 22.2667 33.3321V21.1231C22.2669 20.9527 22.3346 20.7894 22.4551 20.6689C22.5756 20.5484 22.7389 20.4807 22.9093 20.4805H25.1815V20.7382C25.1819 21.1642 25.3513 21.5725 25.6525 21.8737C25.9536 22.1749 26.362 22.3443 26.788 22.3447H29.454C29.8799 22.3443 30.2883 22.1749 30.5895 21.8737C30.8907 21.5725 31.0601 21.1642 31.0604 20.7382V20.4805H33.332C33.5024 20.4807 33.6657 20.5484 33.7862 20.6689C33.9067 20.7894 33.9744 20.9527 33.9746 21.1231V33.3321ZM13.8271 31.9293C13.7256 31.9293 13.6265 31.9594 13.5422 32.0157C13.4579 32.0721 13.3922 32.1521 13.3534 32.2458C13.3146 32.3395 13.3044 32.4426 13.3242 32.542C13.344 32.6415 13.3928 32.7328 13.4645 32.8045C13.5362 32.8762 13.6276 32.9251 13.727 32.9449C13.8265 32.9646 13.9296 32.9545 14.0233 32.9157C14.1169 32.8769 14.197 32.8112 14.2533 32.7269C14.3097 32.6425 14.3397 32.5434 14.3397 32.442C14.3397 32.306 14.2857 32.1756 14.1896 32.0795C14.0934 31.9833 13.963 31.9293 13.8271 31.9293ZM11.5479 14.5742C11.6839 14.5742 11.8143 14.5202 11.9105 14.4241C12.0066 14.3279 12.0606 14.1975 12.0606 14.0615V13.3985C12.0606 13.2625 12.0066 13.1321 11.9105 13.0359C11.8143 12.9398 11.6839 12.8858 11.5479 12.8858C11.412 12.8858 11.2816 12.9398 11.1854 13.0359C11.0893 13.1321 11.0353 13.2625 11.0353 13.3985V14.0602C11.0351 14.1276 11.0482 14.1944 11.0739 14.2568C11.0996 14.3192 11.1373 14.3758 11.1849 14.4236C11.2326 14.4713 11.2891 14.5092 11.3514 14.5351C11.4137 14.5609 11.4805 14.5742 11.5479 14.5742ZM13.8271 29.8785C13.7256 29.8785 13.6265 29.9086 13.5422 29.9649C13.4579 30.0213 13.3922 30.1014 13.3534 30.195C13.3146 30.2887 13.3044 30.3918 13.3242 30.4913C13.344 30.5907 13.3928 30.6821 13.4645 30.7538C13.5362 30.8255 13.6276 30.8743 13.727 30.8941C13.8265 30.9139 13.9296 30.9037 14.0233 30.8649C14.1169 30.8261 14.197 30.7604 14.2533 30.6761C14.3097 30.5918 14.3397 30.4926 14.3397 30.3912C14.3397 30.2553 14.2857 30.1249 14.1896 30.0287C14.0934 29.9326 13.963 29.8785 13.8271 29.8785Z" fill="black"/>
</svg>
