<svg width="35" height="35" viewBox="0 0 35 35" fill="none" xmlns="http://www.w3.org/2000/svg">
<path d="M30.625 30.625H20.2344C19.6744 30.625 19.0925 30.3483 18.4756 30.0552C17.9331 29.797 17.3731 29.5312 16.9531 29.5312H14.7656C14.6206 29.5312 14.4815 29.4736 14.3789 29.3711C14.2764 29.2685 14.2188 29.1294 14.2188 28.9844C14.2188 28.8393 14.2764 28.7002 14.3789 28.5977C14.4815 28.4951 14.6206 28.4375 14.7656 28.4375H16.9531C17.6192 28.4375 18.293 28.758 18.9448 29.0675C19.425 29.295 19.9205 29.5312 20.2344 29.5312H30.625C30.9066 29.5187 31.1725 29.3979 31.3674 29.1942C31.5622 28.9904 31.6709 28.7194 31.6709 28.4375C31.6709 28.1556 31.5622 27.8846 31.3674 27.6808C31.1725 27.4771 30.9066 27.3563 30.625 27.3438C30.48 27.3438 30.3409 27.2861 30.2383 27.1836C30.1357 27.081 30.0781 26.9419 30.0781 26.7969C30.0781 26.6518 30.1357 26.5127 30.2383 26.4102C30.3409 26.3076 30.48 26.25 30.625 26.25H31.1719C31.4535 26.2374 31.7194 26.1167 31.9142 25.9129C32.1091 25.7092 32.2178 25.4382 32.2178 25.1562C32.2178 24.8743 32.1091 24.6033 31.9142 24.3996C31.7194 24.1958 31.4535 24.0751 31.1719 24.0625C31.0268 24.0625 30.8877 24.0049 30.7852 23.9023C30.6826 23.7998 30.625 23.6607 30.625 23.5156C30.625 23.3706 30.6826 23.2315 30.7852 23.1289C30.8877 23.0264 31.0268 22.9688 31.1719 22.9688H31.7188C32.0004 22.9562 32.2663 22.8354 32.4611 22.6317C32.6559 22.4279 32.7647 22.1569 32.7647 21.875C32.7647 21.5931 32.6559 21.3221 32.4611 21.1183C32.2663 20.9146 32.0004 20.7938 31.7188 20.7812H31.1719C31.0268 20.7812 30.8877 20.7236 30.7852 20.6211C30.6826 20.5185 30.625 20.3794 30.625 20.2344C30.625 20.0893 30.6826 19.9502 30.7852 19.8477C30.8877 19.7451 31.0268 19.6875 31.1719 19.6875C31.4535 19.6749 31.7194 19.5542 31.9142 19.3504C32.1091 19.1467 32.2178 18.8757 32.2178 18.5938C32.2178 18.3118 32.1091 18.0408 31.9142 17.8371C31.7194 17.6333 31.4535 17.5126 31.1719 17.5H20.7769C20.6938 17.5 20.6118 17.481 20.5372 17.4446C20.4625 17.4082 20.3972 17.3552 20.346 17.2897C20.2949 17.2243 20.2593 17.148 20.2421 17.0668C20.2248 16.9855 20.2263 16.9014 20.2464 16.8208C20.2508 16.7989 20.7769 14.6606 20.7769 12.1034C20.7769 9.25859 19.6405 8.82766 18.5927 8.76203V12.5781C18.5926 12.6632 18.5727 12.7471 18.5347 12.8231L16.2652 17.3611C16.2003 17.4909 16.0866 17.5896 15.9489 17.6356C15.8113 17.6815 15.6611 17.6709 15.5312 17.6061C15.4014 17.5413 15.3027 17.4275 15.2568 17.2899C15.2108 17.1522 15.2214 17.002 15.2862 16.8722L17.5 12.4491V8.20312C17.5 8.05808 17.5576 7.91899 17.6602 7.81643C17.7627 7.71387 17.9018 7.65625 18.0469 7.65625C19.1909 7.65625 21.8717 7.65625 21.8717 12.1023C21.8717 13.9387 21.6212 15.5411 21.4539 16.4062H31.1719C32.3783 16.4062 33.3594 17.3873 33.3594 18.5938C33.3594 19.1286 33.1658 19.6197 32.8453 20.0003C33.1687 20.1948 33.4364 20.4696 33.6221 20.7981C33.8079 21.1266 33.9056 21.4976 33.9056 21.875C33.9056 22.2524 33.8079 22.6234 33.6221 22.9519C33.4364 23.2804 33.1687 23.5552 32.8453 23.7497C33.0487 23.9918 33.1972 24.2751 33.2805 24.5801C33.3639 24.885 33.3801 25.2045 33.3281 25.5164C33.2761 25.8282 33.1572 26.1251 32.9794 26.3866C32.8017 26.6481 32.5693 26.8679 32.2984 27.0309C32.6189 27.4116 32.8125 27.9027 32.8125 28.4375C32.8125 29.6439 31.8314 30.625 30.625 30.625Z" fill="#383838"/>
<path d="M14.8214 30.625H10.9375V29.5312H14.2188V19.6875H10.9375V18.5938H14.8214C15.1244 18.5938 15.3125 18.8202 15.3125 19.1209V30.0584C15.3125 30.3625 15.1244 30.625 14.8214 30.625Z" fill="#383838"/>
<path d="M1.69641 32.8125C1.55137 32.8125 1.41227 32.7549 1.30971 32.6523C1.20715 32.5498 1.14954 32.4107 1.14954 32.2656C1.14954 32.1206 1.20715 31.9815 1.30971 31.8789C1.41227 31.7764 1.55137 31.7188 1.69641 31.7188H10.9375V19.6875H1.69641C1.55137 19.6875 1.41227 19.6299 1.30971 19.5273C1.20715 19.4248 1.14954 19.2857 1.14954 19.1406C1.14954 18.9956 1.20715 18.8565 1.30971 18.7539C1.41227 18.6514 1.55137 18.5938 1.69641 18.5938H11.5402C11.8431 18.5938 12.0313 18.8202 12.0313 19.1209V32.2459C12.0313 32.55 11.8431 32.8125 11.5402 32.8125H1.69641Z" fill="#383838"/>
<path d="M31.7188 24.0625H26.25C25.0436 24.0625 24.0625 23.0814 24.0625 21.875C24.0625 20.6686 25.0436 19.6875 26.25 19.6875H31.7188C32.9252 19.6875 33.9062 20.6686 33.9062 21.875C33.9062 23.0814 32.9252 24.0625 31.7188 24.0625ZM26.25 20.7812C25.9684 20.7938 25.7025 20.9146 25.5076 21.1183C25.3128 21.3221 25.2041 21.5931 25.2041 21.875C25.2041 22.1569 25.3128 22.4279 25.5076 22.6317C25.7025 22.8354 25.9684 22.9562 26.25 22.9688H31.7188C32.0004 22.9562 32.2663 22.8354 32.4611 22.6317C32.6559 22.4279 32.7647 22.1569 32.7647 21.875C32.7647 21.5931 32.6559 21.3221 32.4611 21.1183C32.2663 20.9146 32.0004 20.7938 31.7188 20.7812H26.25ZM30.625 30.625H27.3438C26.1373 30.625 25.1562 29.6439 25.1562 28.4375C25.1562 27.2311 26.1373 26.25 27.3438 26.25H30.625C31.8314 26.25 32.8125 27.2311 32.8125 28.4375C32.8125 29.6439 31.8314 30.625 30.625 30.625ZM27.3438 27.3438C27.0621 27.3563 26.7962 27.4771 26.6014 27.6808C26.4066 27.8846 26.2978 28.1556 26.2978 28.4375C26.2978 28.7194 26.4066 28.9904 26.6014 29.1942C26.7962 29.3979 27.0621 29.5187 27.3438 29.5312H30.625C30.9066 29.5187 31.1725 29.3979 31.3674 29.1942C31.5622 28.9904 31.6709 28.7194 31.6709 28.4375C31.6709 28.1556 31.5622 27.8846 31.3674 27.6808C31.1725 27.4771 30.9066 27.3563 30.625 27.3438H27.3438Z" fill="#383838"/>
<path d="M31.1719 27.3438H26.7969C25.5905 27.3438 24.6094 26.3627 24.6094 25.1562C24.6094 23.9498 25.5905 22.9688 26.7969 22.9688H31.1719C32.3783 22.9688 33.3594 23.9498 33.3594 25.1562C33.3594 26.3627 32.3783 27.3438 31.1719 27.3438ZM26.7969 24.0625C26.5152 24.0751 26.2493 24.1958 26.0545 24.3996C25.8597 24.6033 25.7509 24.8743 25.7509 25.1562C25.7509 25.4382 25.8597 25.7092 26.0545 25.9129C26.2493 26.1167 26.5152 26.2374 26.7969 26.25H31.1719C31.4535 26.2374 31.7194 26.1167 31.9142 25.9129C32.109 25.7092 32.2178 25.4382 32.2178 25.1562C32.2178 24.8743 32.109 24.6033 31.9142 24.3996C31.7194 24.1958 31.4535 24.0751 31.1719 24.0625H26.7969ZM31.1719 20.7812H26.7969C25.5905 20.7812 24.6094 19.8002 24.6094 18.5938C24.6094 17.3873 25.5905 16.4062 26.7969 16.4062H31.1719C32.3783 16.4062 33.3594 17.3873 33.3594 18.5938C33.3594 19.8002 32.3783 20.7812 31.1719 20.7812ZM26.7969 17.5C26.5152 17.5126 26.2493 17.6333 26.0545 17.8371C25.8597 18.0408 25.7509 18.3118 25.7509 18.5938C25.7509 18.8757 25.8597 19.1467 26.0545 19.3504C26.2493 19.5542 26.5152 19.6749 26.7969 19.6875H31.1719C31.4535 19.6749 31.7194 19.5542 31.9142 19.3504C32.109 19.1467 32.2178 18.8757 32.2178 18.5938C32.2178 18.3118 32.109 18.0408 31.9142 17.8371C31.7194 17.6333 31.4535 17.5126 31.1719 17.5H26.7969ZM19.2587 25.2153C19.1237 25.2164 18.993 25.1676 18.8918 25.0781C18.7906 24.9886 18.7262 24.8648 18.7108 24.7306C18.6955 24.5964 18.7303 24.4613 18.8087 24.3512C18.887 24.2412 19.0033 24.1641 19.1351 24.1347C20.4039 23.8383 21.3259 22.75 21.6026 21.2242C21.8826 19.6777 21.4025 18.0994 20.4608 17.4705C20.3987 17.4317 20.345 17.3809 20.303 17.3211C20.2609 17.2612 20.2313 17.1935 20.2158 17.122C20.2004 17.0505 20.1995 16.9766 20.2131 16.9047C20.2267 16.8328 20.2546 16.7644 20.2952 16.7035C20.3357 16.6426 20.3881 16.5904 20.4492 16.5501C20.5102 16.5098 20.5788 16.4822 20.6507 16.4689C20.7227 16.4555 20.7965 16.4568 20.868 16.4725C20.9395 16.4882 21.007 16.5181 21.0667 16.5605C22.3967 17.4475 23.0442 19.3998 22.6789 21.4189C22.3223 23.3877 21.0908 24.8008 19.3845 25.2C19.3434 25.2104 19.3011 25.2156 19.2587 25.2153Z" fill="#383838"/>
<path d="M22.0336 6.40828C22.12 6.40856 22.2052 6.38827 22.2823 6.34909C22.3593 6.30991 22.4259 6.25297 22.4766 6.18297L23.7628 4.41328C23.805 4.35525 23.8354 4.28948 23.8522 4.21971C23.869 4.14993 23.8719 4.07754 23.8608 4.00664C23.8496 3.93575 23.8246 3.86776 23.7871 3.80654C23.7497 3.74532 23.7005 3.69207 23.6425 3.64984C23.5845 3.60762 23.5187 3.57723 23.4489 3.56042C23.3791 3.54362 23.3067 3.54071 23.2359 3.55189C23.165 3.56306 23.097 3.58808 23.0357 3.62554C22.9745 3.66299 22.9213 3.71213 22.8791 3.77016L21.5928 5.53984C21.5332 5.62122 21.4972 5.71754 21.489 5.81811C21.4808 5.91867 21.5006 6.01955 21.5463 6.10952C21.592 6.19949 21.6617 6.27505 21.7477 6.32779C21.8337 6.38053 21.9327 6.40839 22.0336 6.40828ZM23.3012 8.49187C23.3233 8.56027 23.3587 8.62364 23.4053 8.67836C23.4519 8.73308 23.5088 8.77809 23.5728 8.8108C23.6368 8.8435 23.7066 8.86328 23.7782 8.86899C23.8499 8.8747 23.9219 8.86623 23.9903 8.84406L26.0706 8.16813C26.2085 8.12331 26.323 8.02553 26.3889 7.89631C26.4547 7.76708 26.4665 7.617 26.4217 7.47906C26.3769 7.34113 26.2791 7.22665 26.1499 7.16081C26.0207 7.09496 25.8706 7.08315 25.7326 7.12797L23.6523 7.80391C23.5841 7.82598 23.5208 7.8613 23.4663 7.90783C23.4117 7.95437 23.3668 8.01121 23.3342 8.07511C23.3016 8.139 23.2819 8.2087 23.2762 8.28021C23.2706 8.35173 23.2791 8.42365 23.3012 8.49187ZM14.98 11.1956C14.958 11.1272 14.9228 11.0637 14.8762 11.009C14.8296 10.9542 14.7726 10.9092 14.7086 10.8766C14.6445 10.8439 14.5746 10.8243 14.503 10.8188C14.4313 10.8133 14.3592 10.822 14.2909 10.8445L12.2106 11.5205C12.0848 11.559 11.9772 11.6417 11.9076 11.7533C11.8379 11.8649 11.811 11.9979 11.8316 12.1279C11.8522 12.2578 11.9191 12.3759 12.0199 12.4604C12.1207 12.545 12.2486 12.5903 12.3801 12.588C12.4373 12.5878 12.4941 12.579 12.5486 12.5617L14.6289 11.8858C14.7667 11.8405 14.881 11.7424 14.9468 11.6131C15.0126 11.4838 15.0245 11.3337 14.98 11.1956ZM26.0706 11.5205L23.9903 10.8445C23.9218 10.8214 23.8493 10.8122 23.7772 10.8173C23.7051 10.8223 23.6347 10.8417 23.57 10.8742C23.5054 10.9066 23.4479 10.9516 23.4008 11.0065C23.3537 11.0613 23.3179 11.125 23.2956 11.1938C23.2732 11.2626 23.2647 11.3351 23.2706 11.4072C23.2765 11.4792 23.2966 11.5494 23.3298 11.6137C23.3629 11.6779 23.4085 11.735 23.4639 11.7815C23.5193 11.828 23.5833 11.8631 23.6523 11.8847L25.7326 12.5606C25.8701 12.6036 26.0189 12.5907 26.1469 12.5246C26.2749 12.4585 26.3716 12.3447 26.4161 12.2077C26.4606 12.0707 26.4493 11.9218 26.3846 11.7931C26.3199 11.6644 26.2071 11.5665 26.0706 11.5205ZM12.2106 8.16703L14.2909 8.84297C14.429 8.88779 14.5792 8.87592 14.7086 8.80997C14.8379 8.74403 14.9357 8.62941 14.9805 8.49133C15.0254 8.35325 15.0135 8.20302 14.9475 8.0737C14.8816 7.94437 14.767 7.84654 14.6289 7.80172L12.5486 7.12578C12.4105 7.08096 12.2603 7.09283 12.1309 7.15878C12.0016 7.22472 11.9038 7.33934 11.859 7.47742C11.8142 7.6155 11.826 7.76573 11.892 7.89505C11.9579 8.02438 12.0725 8.12221 12.2106 8.16703ZM15.4033 3.77016C15.3622 3.70913 15.3093 3.657 15.2477 3.61688C15.1861 3.57677 15.117 3.5495 15.0446 3.5367C14.9722 3.5239 14.8979 3.52583 14.8263 3.54238C14.7546 3.55894 14.6871 3.58977 14.6276 3.63304C14.5681 3.67631 14.518 3.73112 14.4802 3.7942C14.4425 3.85729 14.4178 3.92734 14.4077 4.00018C14.3976 4.07302 14.4023 4.14715 14.4215 4.21813C14.4407 4.2891 14.4741 4.35548 14.5195 4.41328L15.8058 6.18297C15.8478 6.24119 15.901 6.29052 15.9622 6.3281C16.0234 6.36569 16.0915 6.3908 16.1625 6.40198C16.2334 6.41316 16.3059 6.4102 16.3757 6.39326C16.4455 6.37632 16.5113 6.34574 16.5692 6.30328C16.6863 6.21793 16.7648 6.0896 16.7873 5.94646C16.8099 5.80331 16.7747 5.65707 16.6895 5.53984L15.4033 3.77016ZM19.1406 2.1875C18.9956 2.1875 18.8565 2.24512 18.7539 2.34768C18.6514 2.45024 18.5937 2.58933 18.5937 2.73438V4.92188C18.5937 5.06692 18.6514 5.20601 18.7539 5.30857C18.8565 5.41113 18.9956 5.46875 19.1406 5.46875C19.2857 5.46875 19.4248 5.41113 19.5273 5.30857C19.6299 5.20601 19.6875 5.06692 19.6875 4.92188V2.73438C19.6875 2.58933 19.6299 2.45024 19.5273 2.34768C19.4248 2.24512 19.2857 2.1875 19.1406 2.1875Z" fill="#383838"/>
</svg>
